Coordinates
version=1
nRows=6
nColumns=36
inDegrees=yes

Units are S.I. units (second, meters, Newtons, ...)
If the header above contains a line with 'inDegrees', this indicates whether rotational values are in degrees (yes) or radians (no).

endheader
time	pelvis_tilt	pelvis_list	pelvis_rotation	pelvis_tx	pelvis_ty	pelvis_tz	hip_flexion_r	hip_adduction_r	hip_rotation_r	knee_angle_r	knee_angle_r_beta	ankle_angle_r	subtalar_angle_r	mtp_angle_r	hip_flexion_l	hip_adduction_l	hip_rotation_l	knee_angle_l	knee_angle_l_beta	ankle_angle_l	subtalar_angle_l	mtp_angle_l	lumbar_extension	lumbar_bending	lumbar_rotation	arm_flex_r	arm_add_r	arm_rot_r	elbow_flex_r	pro_sup_r	arm_flex_l	arm_add_l	arm_rot_l	elbow_flex_l	pro_sup_l
      0.00000000	     -9.61110766	     -2.80086544	      1.22293711	     -0.94002582	      1.23229098	     -0.10558526	     17.90478677	      1.61552196	      7.45543177	     17.01437188	      0.29695681	      3.21817283	    -21.41048252	     -5.58515114	     15.14952293	     -2.77070280	      7.03182431	     12.17371582	      0.21247142	      6.99620410	    -16.32837235	     -5.58515114	     -0.80059997	      2.37149225	     -3.53848577	     11.18790512	     -6.28447486	     36.11146854	     33.22740773	     77.09988890	      6.94299831	     -5.14347636	     30.43636352	     29.25730193	     66.78846259
      0.00416670	    -11.33091182	     -1.94458490	      0.78856806	     -0.94440559	      1.23379042	     -0.10982757	     20.65686964	      0.59162777	      8.08885040	     18.44140034	      0.32186315	      5.89447641	    -21.18981671	     -5.65819804	     18.32955414	     -1.13399996	      8.02271389	     13.71099070	      0.23930193	      5.93544905	    -17.70889661	     -5.65819804	      0.85301706	      1.84698659	     -3.01281519	     11.31527343	     -7.23547985	     38.73533958	     34.15629565	     78.10624003	      6.87945545	     -5.28630884	     31.81880601	     30.47683554	     67.45857710
      0.00833330	    -10.61444830	     -0.97353849	      0.55957461	     -0.93190466	      1.23820354	     -0.11047955	     18.51491756	     -0.65967436	      7.77746388	     16.49920904	      0.28796552	      5.13094884	    -21.24003292	     -5.73144282	     16.52578034	     -0.24855672	      8.11109014	     12.60254389	      0.21995589	      4.48695988	    -19.45668535	     -5.73144282	      0.38136234	      0.80424243	     -2.76707376	     11.65505501	     -7.40320249	     41.77125763	     33.45329622	     79.65517015	      7.17618134	     -5.87961789	     34.20054760	     30.09384262	     68.61958015
      0.01250000	    -10.53385901	     -0.34302621	      0.43769841	     -0.93139503	      1.23481093	     -0.10963613	     18.02766380	     -1.40486986	      7.80701046	     16.15804961	      0.28201117	      4.77374917	    -22.13460118	     -6.36019778	     15.96465415	      0.40307630	      8.60358075	     12.20803809	      0.21307046	      3.45899599	    -21.41300895	     -6.36019778	      0.42376088	      0.17315545	     -2.35917471	     11.40382747	     -7.59123824	     42.71701118	     33.26992630	     85.91213169	      7.42899083	     -6.32060068	     36.57482820	     29.61351304	     75.13644155
      0.01666670	    -10.87642458	      0.17191638	      0.14845198	     -0.94540635	      1.23304973	     -0.10862940	     18.94812996	     -1.83282694	      8.22656574	     16.43598644	      0.28686208	      4.21608040	    -23.45496264	     -6.42566499	     16.76037696	      0.92209510	      9.19548672	     12.31152656	      0.21487667	      2.08046988	    -23.75244858	     -6.42566499	      0.17953942	     -0.33089502	     -2.06877598	     12.02939900	     -7.63006531	     43.27229637	     33.49700230	     86.39213542	      7.95762702	     -6.59378048	     37.63785104	     29.88915031	     75.99946980
      0.02083330	    -10.46868392	      0.52972377	      0.30329167	     -0.93782366	      1.24043788	     -0.11339281	     18.30919309	     -2.23938683	      8.67650033	     15.97115362	      0.27874922	      3.59420814	    -23.37916372	     -6.47067633	     16.14951509	      1.50622803	      9.88920662	     12.03168628	      0.20999254	      0.69070529	    -24.92169406	     -6.47067633	     -0.37845280	     -0.53967223	     -2.08014188	     12.22481606	     -7.74590662	     43.34926474	     33.34976372	     86.71835356	      8.19728453	     -6.42230664	     38.29520052	     29.65893629	     76.77683221
